<svg xmlns="http://www.w3.org/2000/svg" width="31" height="31" viewBox="0 0 31 31"><g><g><path fill="none" stroke="#fff" stroke-linecap="round" stroke-linejoin="round" stroke-miterlimit="20" stroke-width="3" d="M27.758 22.52v3.96a2.64 2.64 0 0 1-2.878 2.64 26.129 26.129 0 0 1-11.394-4.053 25.746 25.746 0 0 1-7.922-7.921A26.129 26.129 0 0 1 1.511 5.699 2.64 2.64 0 0 1 4.138 2.82H8.1a2.64 2.64 0 0 1 2.64 2.271c.168 1.268.478 2.512.925 3.71a2.64 2.64 0 0 1-.594 2.786l-1.677 1.677a21.125 21.125 0 0 0 7.922 7.922l1.677-1.677a2.64 2.64 0 0 1 2.785-.594c1.198.447 2.443.757 3.71.924a2.64 2.64 0 0 1 2.271 2.68zM18.582 1.5A11.883 11.883 0 0 1 29.08 11.983zm0 5.281a6.602 6.602 0 0 1 5.215 5.215z"/></g></g></svg>